<svg width="97" height="96" xmlns="http://www.w3.org/2000/svg" xmlns:xlink="http://www.w3.org/1999/xlink" xml:space="preserve" overflow="hidden"><g transform="translate(-481 -584)"><g><g><g><g><path d="M530 600C537.732 600 544 606.268 544 614 544 621.732 537.732 628 530 628 522.268 628 516 621.732 516 614 516.008 606.271 522.271 600.008 530 600M530 598C521.163 598 514 605.163 514 614 514 622.837 521.163 630 530 630 538.837 630 546 622.837 546 614 546 605.163 538.837 598 530 598Z" fill="#000000" fill-rule="nonzero" fill-opacity="1"/><path d="M562 666 560 666 560 650.5C559.952 648.376 558.952 646.386 557.275 645.081 552.889 641.716 547.868 639.273 542.513 637.9 538.459 636.652 534.242 636.012 530 636 525.759 636.074 521.548 636.713 517.476 637.9 512.177 639.452 507.178 641.886 502.688 645.1 501.028 646.406 500.042 648.388 500 650.5L500 666 498 666 498 650.5C498.05 647.769 499.326 645.205 501.476 643.519 506.168 640.151 511.395 637.601 516.937 635.977 521.184 634.74 525.577 634.075 530 634 534.432 634.011 538.838 634.678 543.075 635.979 548.685 637.424 553.943 639.991 558.533 643.525 560.678 645.211 561.952 647.772 562 650.5Z" fill="#000000" fill-rule="nonzero" fill-opacity="1"/></g></g></g></g></g></svg>